<?xml version="1.0" encoding="UTF-8"?> <svg xmlns="http://www.w3.org/2000/svg" viewBox="0 0 466.7 94.3"><g fill="#FFF"><path d="M17.5 16.8c-3.7-.1-7.3.8-10.5 2.4V0H0v61.9c5.8 2 11.9 2.5 17.5 2.5 15.4 0 23.8-11.8 23.8-23.6 0-11.7-8.5-24-23.8-24zm0 41.6C14 58.3 10.3 58 7 57.1v-32c3.4-1.3 7.1-2 10.5-2 10.9 0 16.7 9.3 16.8 17.7.2 8.4-5.8 17.6-16.8 17.6zM67.7 55.6L52.9 17.8h-7.6L64 63.6l-2.5 6.6c-1.2 3-3.2 5.1-8.7 4.5v5.8c6.6.6 12.7-.9 15.4-8.1l21.1-54.6h-7.6l-14 37.8zM116.5 16.6c-15.1.1-23.1 12.1-23.1 23.8-.1 11.8 7.7 23.8 23.2 23.8 7.6 0 14.2-2.9 18.8-9.1l-5.7-3.4c-3.1 4.1-8.1 6.3-13.1 6.3-10.1 0-15.8-6.9-16.4-14.7h38.3c2.2-14.5-7.6-26.7-22-26.7zm-16.2 20.8c1.2-7.5 6.4-14.5 16.3-14.6 8.7.2 14.8 6.2 15.6 14.6h-31.9zM166.4 48.1c-.7 1.9-1.6 6.8-1.9 8.6h-.5c-.3-1.7-1.3-6.8-2-8.6l-10.8-30.4h-7.6l16.3 46h8.5l16.3-46h-7.6l-10.7 30.4zM212 16.9c-13.7 0-23.1 10.4-23.1 23.8 0 13.3 9.5 23.8 23.1 23.8 13.8 0 23.2-10.5 23.2-23.8.1-13.3-9.4-23.8-23.2-23.8zm0 41.4c-8.2 0-16.1-5.8-16.1-17.6 0-11.9 7.9-17.5 16.1-17.5 8.3 0 16.2 5.6 16.2 17.5s-7.9 17.6-16.2 17.6zM252.3 50V0h-7.1v50c0 10 5 14.6 14.4 13.6v-6.2c-6 .5-7.3-2.2-7.3-7.4zM310 61.1V17.6h-7.1v39.1c-3.5 1.4-7.2 1.6-11.1 1.6-8.9 0-16.2-4.9-16.2-14.7V17.7h-7v25.9c0 13.6 10.4 21 23.3 21 6.5 0 12-1.3 18.1-3.5zM324.4 50.1c0 10 6.9 14.6 16.3 13.6v-6.2c-5.8.4-9.3-2.3-9.3-7.4V23.9h9.3v-6.1h-9.3V.5h-7v17.3h-4.7v6.1h4.7v26.2zM351 17.4h7.1v46.1H351zM358.2.1h-7.3v10.1h7.3V.1zM391.7 16.9c-13.7 0-23.1 10.4-23.1 23.8 0 13.3 9.5 23.8 23.1 23.8 13.8 0 23.2-10.5 23.2-23.8s-9.5-23.8-23.2-23.8zm0 41.4c-8.2 0-16.1-5.8-16.1-17.6 0-11.9 7.9-17.5 16.1-17.5 8.3 0 16.2 5.6 16.2 17.5s-7.9 17.6-16.2 17.6zM443.5 16.6c-6.6 0-12.1 1.3-18.2 3.5v43.3h7.1V24.6c11-3.9 27.3-1.8 27.3 12.8v26.1h7V37.3c0-13.5-10.4-20.7-23.2-20.7zM290.2 87.9c-4.4 0-6.8-3.5-6.8-7.1 0-3.6 2.3-7.1 6.8-7.2 1.9 0 3.7.8 5 2.1l1.3-1.4c-1.6-1.7-3.8-2.6-6.3-2.6-5.8 0-8.9 4.6-8.9 9.1s3.1 9 8.9 9c2.8 0 5.2-1.3 6.9-3.2l-1.5-1.2c-1.3 1.6-3.3 2.5-5.4 2.5zM301.8 78.4l-.2-1.6H300v12.7h1.9v-7.6c0-2.9 2.6-4.3 5.2-3.1l.7-1.7c-1.8-.9-4.7-.8-6 1.3zM315.2 76.5c-4.2 0-6.4 3.3-6.4 6.6s2.1 6.6 6.4 6.6c2.1 0 3.9-.8 5.2-2.5l-1.6-.9c-.8 1.1-2.2 1.7-3.6 1.7-2.8 0-4.4-1.9-4.5-4.1h10.6c.6-4-2.1-7.4-6.1-7.4zm-4.5 5.8c.3-2.1 1.8-4 4.5-4 2.4 0 4.1 1.7 4.3 4h-8.8zM324.3 78.2l1 1.1c2.5-1.8 7.3-1.9 7.3 2.4v.3c-1-.5-2.1-.9-3.2-.9-7.8-.1-7.9 8.7-.2 8.6 1.3 0 2.6-.4 3.5-1.3l.3 1.1h1.5v-7.8c-.1-5.7-6.7-6.4-10.2-3.5zm8.3 8.4c-.8.9-2.2 1.4-3.4 1.4-5.2 0-5.1-5.2.2-5.2 1.1 0 2.3.2 3.2.8v3zM340.1 72.1h-2v4.8h-1.3v1.7h1.3v7.3c0 2.8 1.9 4 4.5 3.8V88c-1.6.1-2.6-.6-2.6-2v-7.3h2.6V77H340v-4.9zM345.5 74.7h2v-2.8h-2v2.8zM345.6 76.7h2v12.8h-2zM356 85.3c-.2.5-.5 1.9-.5 2.4h-.1c-.1-.5-.4-1.9-.5-2.4l-3-8.4h-2.1l4.5 12.8h2.3l4.5-12.8H359l-3 8.4zM368.7 76.5c-4.2 0-6.4 3.3-6.4 6.6s2.1 6.6 6.4 6.6c2.1 0 3.9-.8 5.2-2.5l-1.6-.9c-.8 1.1-2.2 1.7-3.6 1.7-2.8 0-4.4-1.9-4.5-4.1h10.6c.7-4-2-7.4-6.1-7.4zm-4.5 5.8c.3-2.1 1.8-4 4.5-4 2.4 0 4.1 1.7 4.3 4h-8.8zM384.8 89.5h2.1v-7.7h7.2v-1.9h-7.2v-6h7.3V72h-9.4zM396.7 78.2l1 1.1c2.5-1.8 7.3-1.9 7.3 2.4v.3c-1-.5-2.1-.9-3.2-.9-7.8-.1-7.9 8.7-.2 8.6 1.3 0 2.6-.4 3.5-1.3l.3 1.1h1.5v-7.8c0-5.7-6.7-6.4-10.2-3.5zm8.3 8.4c-.8.9-2.2 1.4-3.4 1.4-5.2 0-5.1-5.2.2-5.2 1.1 0 2.3.2 3.2.8v3zM416 88c-3 0-4.5-2.4-4.5-4.7 0-3 2.2-4.9 4.5-4.9 1.3 0 2.4.4 3.4 1.3l1.1-1.3c-1.2-1.2-2.6-1.7-4.4-1.7-4.2 0-6.4 3.3-6.5 6.6 0 3.3 2.2 6.5 6.5 6.5 1.8 0 3.4-.7 4.5-1.8l-1.1-1.3c-1 .7-2.2 1.3-3.5 1.3zM425.5 72.1h-2v4.8h-1.3v1.7h1.3v7.3c0 2.8 1.9 4 4.5 3.8V88c-1.6.1-2.6-.6-2.6-2v-7.3h2.6V77h-2.6v-4.9zM436.4 76.6c-3.8 0-6.4 2.9-6.4 6.6s2.6 6.6 6.4 6.6c3.8 0 6.4-2.9 6.4-6.6s-2.5-6.6-6.4-6.6zm0 11.5c-2.3 0-4.5-1.6-4.5-4.9 0-3.3 2.2-4.8 4.5-4.8s4.5 1.5 4.5 4.8-2.2 4.9-4.5 4.9zM447.7 78.4l-.2-1.6h-1.7v12.7h1.9v-7.6c0-2.9 2.6-4.3 5.2-3.1l.7-1.7c-1.8-.9-4.7-.8-5.9 1.3zM460.2 87.4l-4.1-10.5H454l5.2 12.7-.7 1.8c-.3.8-.9 1.4-2.4 1.2v1.6c1.8.2 3.5-.3 4.3-2.3l5.9-15.2h-2.1l-4 10.7z"></path></g></svg> 